HIERARCHY
ROOT joint_0
{
	OFFSET 0.000000 0.000000 0.000000
	CHANNELS 6 Xposition Yposition Zposition Zrotation Yrotation Xrotation 
	JOINT joint_1
	{
		OFFSET 7.566162 2.250183 114.799927
		CHANNELS 3 Zrotation Yrotation Xrotation
		JOINT joint_2
		{
			OFFSET -5.201660 -0.414001 104.936035
			CHANNELS 3 Zrotation Yrotation Xrotation
			JOINT joint_3
			{
				OFFSET -6.923584 -0.419739 104.718018
				CHANNELS 3 Zrotation Yrotation Xrotation
				JOINT joint_4
				{
					OFFSET 3.108887 2.881104 149.449951
					CHANNELS 3 Zrotation Yrotation Xrotation
					JOINT joint_5
					{
						OFFSET 19.988770 5.920349 90.786987
						CHANNELS 3 Zrotation Yrotation Xrotation
						End Site
						{
							OFFSET 0.000000 0.000000 0.000000
						}
					}
				}
				JOINT joint_6
				{
					OFFSET 9.283936 -30.015930 84.410034
					CHANNELS 3 Zrotation Yrotation Xrotation
					JOINT joint_7
					{
						OFFSET 47.243164 -155.716736 -23.241089
						CHANNELS 3 Zrotation Yrotation Xrotation
						JOINT joint_8
						{
							OFFSET 31.323730 -15.356873 -268.798950
							CHANNELS 3 Zrotation Yrotation Xrotation
							JOINT joint_9
							{
								OFFSET 28.122314 -2.114624 -262.450012
								CHANNELS 3 Zrotation Yrotation Xrotation
								End Site
								{
									OFFSET 0.000000 0.000000 0.000000
								}
							}
						}
					}
				}
				JOINT joint_10
				{
					OFFSET -5.580566 33.311218 83.498047
					CHANNELS 3 Zrotation Yrotation Xrotation
					JOINT joint_11
					{
						OFFSET -22.773438 160.515381 -27.138062
						CHANNELS 3 Zrotation Yrotation Xrotation
						JOINT joint_12
						{
							OFFSET 27.004395 30.848877 -267.937988
							CHANNELS 3 Zrotation Yrotation Xrotation
							JOINT joint_13
							{
								OFFSET 32.625000 14.824585 -261.518005
								CHANNELS 3 Zrotation Yrotation Xrotation
								End Site
								{
									OFFSET 0.000000 0.000000 0.000000
								}
							}
						}
					}
				}
			}
		}
	}
	JOINT joint_14
	{
		OFFSET 20.623535 -83.447632 -106.174011
		CHANNELS 3 Zrotation Yrotation Xrotation
		JOINT joint_15
		{
			OFFSET 0.661865 -23.563843 -459.915039
			CHANNELS 3 Zrotation Yrotation Xrotation
			JOINT joint_16
			{
				OFFSET -23.461670 -28.727966 -444.760971
				CHANNELS 3 Zrotation Yrotation Xrotation
				JOINT joint_17
				{
					OFFSET 178.992920 54.047363 -80.113001
					CHANNELS 3 Zrotation Yrotation Xrotation
					End Site
					{
						OFFSET 0.000000 0.000000 0.000000
					}
				}
			}
		}
	}
	JOINT joint_18
	{
		OFFSET -19.571533 84.686279 -105.380005
		CHANNELS 3 Zrotation Yrotation Xrotation
		JOINT joint_19
		{
			OFFSET -22.949951 3.639404 -459.933044
			CHANNELS 3 Zrotation Yrotation Xrotation
			JOINT joint_20
			{
				OFFSET -33.690674 4.092651 -445.010971
				CHANNELS 3 Zrotation Yrotation Xrotation
				JOINT joint_21
				{
					OFFSET 187.419678 18.953857 -76.759001
					CHANNELS 3 Zrotation Yrotation Xrotation
					End Site
					{
						OFFSET 0.000000 0.000000 0.000000
					}
				}
			}
		}
	}
}
MOTION
Frames: 6
Frame Time: 0.016667
-2854.750732 939.032410 1097.354980 1.702918 3.069375 -3.038666 -2.174770 7.179650 2.902280 0.840547 -1.283589 -0.748631 1.600837 1.467025 0.349941 0.265052 -7.074120 1.141052 0.000000 0.000000 0.000000 2.955815 6.916032 -4.479544 -7.750132 5.252863 -12.485569 0.118087 -36.088133 42.593183 0.000000 0.000000 0.000000 2.365850 5.710123 -1.375813 3.752021 6.140848 6.515996 -5.807860 -58.113497 -26.448256 0.000000 0.000000 0.000000 4.406842 -9.145761 -3.765627 1.120319 20.773172 -5.518023 2.181809 -4.578455 2.309148 0.000000 0.000000 0.000000 -2.215325 -16.331629 15.832347 -3.781449 64.941001 -14.983498 -8.934656 7.995128 -3.613816 0.000000 0.000000 0.000000 
-2847.958984 942.541626 1100.432983 0.722388 2.720046 -2.823332 -2.036540 7.072939 2.225973 1.132225 -1.229166 -0.588757 1.891531 1.452023 0.196769 0.294189 -6.794828 0.940600 0.000000 0.000000 0.000000 2.890468 6.732805 -4.420898 -7.440681 5.072349 -12.436171 0.272733 -35.112813 41.429810 0.000000 0.000000 0.000000 2.320649 5.223372 -1.492016 3.708931 5.701204 6.279836 -5.844975 -56.855789 -27.255638 0.000000 0.000000 0.000000 4.593960 -8.488487 -4.191808 1.466032 20.447115 -5.257424 2.367143 -3.794934 2.143043 0.000000 0.000000 0.000000 -1.106731 -17.751495 15.754449 -3.127742 67.203815 -14.595558 -7.305484 4.686708 -2.497843 0.000000 0.000000 0.000000 
-2841.292725 946.520996 1103.199951 -0.251524 2.373450 -2.687461 -1.853245 6.946124 1.675888 1.350226 -1.167250 -0.455639 2.077133 1.419030 0.073084 0.321495 -6.474271 0.738004 0.000000 0.000000 0.000000 2.774483 6.523985 -4.365292 -7.014384 4.870730 -12.300546 0.492443 -34.107533 40.004425 0.000000 0.000000 0.000000 2.253563 4.748680 -1.588169 3.705451 5.278035 5.993396 -5.828383 -55.491646 -28.155184 0.000000 0.000000 0.000000 4.753333 -7.912943 -4.572487 1.797515 20.225736 -4.990395 2.583658 -3.008006 1.987122 0.000000 0.000000 0.000000 -0.119320 -18.950196 15.672539 -2.529906 68.494018 -14.011927 -5.962684 1.381120 -1.533977 0.000000 0.000000 0.000000 
-2834.664551 950.994934 1105.595947 -1.106784 2.025470 -2.677320 -1.652147 6.823222 1.334834 1.450850 -1.114393 -0.373818 2.116894 1.368689 -0.001225 0.342374 -6.084650 0.543815 0.000000 0.000000 0.000000 2.572138 6.267263 -4.324439 -6.447960 4.636986 -12.036987 0.788642 -32.983459 38.284433 0.000000 0.000000 0.000000 2.138724 4.332059 -1.664256 3.748649 4.913601 5.636064 -5.746638 -54.104886 -29.095664 0.000000 0.000000 0.000000 4.883194 -7.425445 -4.863778 2.092074 20.174988 -4.711308 2.828176 -2.208837 1.836913 0.000000 0.000000 0.000000 0.642572 -19.952910 15.644615 -2.074964 68.668460 -13.174293 -4.975690 -1.601163 -0.887660 0.000000 0.000000 0.000000 
-2828.161621 955.940002 1107.682007 -1.942181 1.678546 -2.743223 -1.416149 6.678464 1.113019 1.474034 -1.049529 -0.314397 2.050962 1.303871 -0.047161 0.362212 -5.660101 0.339336 0.000000 0.000000 0.000000 2.314565 5.979010 -4.280656 -5.787784 4.376664 -11.681820 1.126935 -31.808436 36.313257 0.000000 0.000000 0.000000 1.998119 3.917323 -1.732501 3.836003 4.558681 5.253930 -5.608971 -52.604490 -30.132303 0.000000 0.000000 0.000000 5.003869 -7.016609 -5.110988 2.364292 20.229671 -4.425014 3.091637 -1.407450 1.693121 0.000000 0.000000 0.000000 1.257994 -20.715111 15.619258 -1.639192 67.835684 -12.142138 -4.104807 -4.425090 -0.426880 0.000000 0.000000 0.000000 
-2821.697998 961.204041 1109.052979 -2.760428 1.321411 -2.835372 -1.177020 6.575361 0.941989 1.445527 -1.004596 -0.276995 1.928145 1.263256 -0.069629 0.379758 -5.271570 0.150331 0.000000 0.000000 0.000000 2.045859 5.725685 -4.228694 -5.143563 4.122989 -11.360362 1.436689 -30.980711 34.169586 0.000000 0.000000 0.000000 1.871896 3.465848 -1.749528 3.939011 4.152002 4.815295 -5.451508 -50.972016 -31.382399 0.000000 0.000000 0.000000 5.086496 -6.701969 -5.269567 2.570524 20.487183 -4.290230 3.312539 -0.714606 1.565407 0.000000 0.000000 0.000000 1.702219 -21.209058 15.596602 -1.194822 66.092439 -11.075165 -3.339131 -6.828590 -0.116686 0.000000 0.000000 0.000000 
